# xmcd CD database file
# Copyright (C) 1993-1998 Ti Kan
#
# Track frame offsets:
#  150
#  11410
#  29357
#  47797
#  64939
#  87350
#  102802
#  126732
#  141585
#  163657
#  184107
#  216065
#
# Disc length: 3244 seconds
#
# Revision: 1
# Processed by: cddbd v1.4b41PL1 Copyright (c) Steve Scherf et al.
# Submitted via: CDWizzard Release:4.35
#
DISCID=af0caa0c
DTITLE=Various Artist - Beach Music/Made for Dancing Vol 1
DYEAR=1900
DGENRE=
TTITLE0=Heartbreak - Dee Clark
TTITLE1=Back By Popular Demand /Jean Scherrie and Lynda
TTITLE2=Dust My Broom - The Nighthawks
TTITLE3=How You Gonna Feel - Debbie Dobbins
TTITLE4=(They Call It) Mr Dollar Part 1 and 2 - Bradford and Bell
TTITLE5=Black Cadillac - Catfish Hodge Band
TTITLE6=Never Make Your Move Too Soon - Tom Principato
TTITLE7=She's Dynamite - Doug Jay King
TTITLE8=Just Give Me Some Time - The Coupe De Villes
TTITLE9=I'D Rather Drink Muddy Water - Big Joe and The Dynaflows
TTITLE10=Cheaters Never Win - Love Connection
TTITLE11=Back By Popular Demand "Beach Club" Remix - Jean Scheme
EXTD=
EXTT0=
EXTT1=
EXTT2=
EXTT3=
EXTT4=
EXTT5=
EXTT6=
EXTT7=
EXTT8=
EXTT9=
EXTT10=
EXTT11=
PLAYORDER=
